<?xml version="1.0" encoding="UTF-8" standalone="no"?>
<?xml-stylesheet type="text/css" href="lasersvg.css"?>

<svg
   xmlns:dc="http://purl.org/dc/elements/1.1/"
   xmlns:cc="http://creativecommons.org/ns#"
   xmlns:rdf="http://www.w3.org/1999/02/22-rdf-syntax-ns#"
   xmlns:svg="http://www.w3.org/2000/svg"
   xmlns="http://www.w3.org/2000/svg"
   xmlns:sodipodi="http://sodipodi.sourceforge.net/DTD/sodipodi-0.dtd"
   xmlns:inkscape="http://www.inkscape.org/namespaces/inkscape"
   xmlns:xlink="http://www.w3.org/1999/xlink"
   version="1.1"
   width="600mm"
   height="300mm"
   id="svg890"
   viewBox="0 0 600 300"
   sodipodi:docname="trex1.svg"
   inkscape:version="0.92.2 5c3e80d, 2017-08-06"
   xmlns:laser="http://www.heller-web.net/lasersvg" laser:material-thickness="3" laser:kerf="0.2" laser:action="cut">
  <script type="text/javascript" xlink:href="lasersvgjoints.js" />
  <script type="text/javascript" xlink:href="lasersvgedit.js" />
  <script type="text/javascript" xlink:href="lasersvg.js" />
  <script type="text/javascript" xlink:href="path-data-polyfill.js" />
  <metadata
     id="metadata896">
    <rdf:RDF>
      <cc:Work
         rdf:about="">
        <dc:format>image/svg+xml</dc:format>
        <dc:type
           rdf:resource="http://purl.org/dc/dcmitype/StillImage" />
        <dc:title></dc:title>
      </cc:Work>
    </rdf:RDF>
  </metadata>
  <defs
     id="defs894" />
  <sodipodi:namedview
     pagecolor="#ffffff"
     bordercolor="#666666"
     borderopacity="1"
     objecttolerance="10"
     gridtolerance="10"
     guidetolerance="10"
     inkscape:pageopacity="0"
     inkscape:pageshadow="2"
     inkscape:window-width="3269"
     inkscape:window-height="2090"
     id="namedview892"
     showgrid="false"
     units="mm"
     inkscape:document-units="mm"
     inkscape:zoom="1"
     inkscape:cx="860.5"
     inkscape:cy="678.23729"
     inkscape:window-x="188"
     inkscape:window-y="0"
     inkscape:window-maximized="0"
     inkscape:current-layer="svg890" />
   <path
     d="m 272.28336,45.961676 c 2.25995,-1.86754 6.04441,-0.34795 10.07599,-0.9694 4.13287,-0.63699 8.33342,-1.80368 11.09152,-2.10824 4.38786,-0.48487 8.44951,6.51665 4.33814,10.08693 -1.50013,1.30291 -6.49996,2.23138 -10.56841,4.11552 -1.40055,0.64863 -3.40739,1.30819 -4.93543,2.58286 -1.1889,0.9913 -1.80516,2.86908 -3.40877,2.87648 -4.13539,0.0198 -4.68509,-2.8486 -4.68509,-7.18008 0,-1.7098 -3.29602,-10.08797 -1.90795,-9.40407 z"
     style="fill:none;stroke:#000000;stroke-width:0.05069278;stroke-linecap:butt;stroke-linejoin:miter;stroke-miterlimit:4;stroke-dasharray:none"
     id="path862"
     inkscape:connector-curvature="0" />
  <path
     d="m 289.8072,114.52439 c 1.27267,5.35666 2.74808,7.9794 5.29133,7.69143 1.41989,-0.16057 2.39823,-2.07857 3.73001,-3.84659 0.91103,-1.20975 2.97087,-1.8125 3.12301,-2.98943 0.21845,-1.68826 -0.5192,-3.83953 -2.02896,-4.61132 -1.7988,-0.92001 -4.15473,-0.13198 -6.23393,0.36384 -2.07913,0.49582 -3.88146,0.69945 -3.88146,3.39207 z"
     style="fill:none;stroke:#000000;stroke-width:0.05069278;stroke-linecap:butt;stroke-linejoin:miter;stroke-miterlimit:4;stroke-dasharray:none"
     id="path864"
     inkscape:connector-curvature="0" />
  <path
     d="m 253.54552,35.018976 0.94663,-0.24154 0.0632,-0.0161 5.39582,20.76294 3.07215,-0.58915 -5.4434,-20.94556 1.84783,-0.47144 c 1.03247,-0.26344 1.3776,-0.93414 2.69293,-0.98495 1.31565,-0.0509 3.0102,-0.17896 4.95868,0.60382 4.61129,1.8534 7.57208,1.98822 9.77335,1.16664 1.00096,-0.37371 1.70817,-1.21712 2.5834,-1.70906 0.9339,-0.52516 2.17221,-0.58689 3.13486,-1.08023 2.32764,-1.19386 5.80807,-0.43516 8.79785,0.76897 12.1763,4.90353 18.33145,11.61639 20.30817,18.79047 0.92463,3.35503 -2.14758,6.00279 -3.03743,10.13106 -0.40437,1.87673 1.29163,5.00903 1.11976,6.98421 -0.24535,2.81297 -0.16972,6.621437 -0.89564,9.648617 -0.93353,3.89178 -2.12571,7.3728 -2.05374,11.03976 0.10097,5.13116 0.11143,9.67965 1.44964,13.604997 2.01863,5.92164 3.8052,11.67037 1.01697,16.18004 -1.30455,2.10998 -3.36402,3.95568 -6.2822,7.31843 -0.73443,0.84624 -1.87071,1.90073 -2.51388,2.96934 -0.82721,1.37485 -0.87807,3.32604 -2.41613,3.79364 -1.42562,0.43369 -3.15345,0.67509 -4.93895,0.68534 -1.67414,0.01 -2.18836,-1.8905 -3.76619,-2.31432 -2.50997,-0.67439 -4.52002,0.6091 -5.58395,-0.19692 -1.29598,-0.9821 -2.11134,-2.5511 -1.20611,-4.25877 0.70368,-1.32798 3.09257,-2.7311 2.77493,-4.0273 -0.46122,-1.8813 -3.53551,-2.64605 -5.39658,-3.45351 -1.52092,-0.65954 -1.81991,-2.04645 -1.86472,-2.25746 -0.17181,-0.80885 0.11464,-1.86223 1.15884,-2.6997 1.04426,-0.83779 2.84728,-1.46136 2.93041,-3.45946 0.0498,-1.1949 -1.10653,-2.46115 -2.4806,-2.77486 -1.76684,-0.40301 -3.72289,-0.13482 -4.11213,-1.67204 -0.10815,-0.42697 -0.20697,-0.91825 -0.20949,-1.41584 0,-0.49723 0.0917,-1.00219 0.36712,-1.45498 0.45441,-0.7478 1.64615,-0.76755 2.28182,-1.37878 1.05964,-1.01813 1.29491,-2.354177 1.20352,-2.758987 -0.6005,-2.65589 -5.96387,-3.19938 -6.30836,-4.43348 -1.02271,-3.66058 3.4994,-3.73578 1.6251,-7.87563 -0.27895,-0.61615 -1.34609,-0.59606 -2.91888,-1.35443 -1.29674,-0.62572 -2.13075,-2.15551 -3.31644,-2.42934 -1.97457,-0.45667 -4.00252,0.75024 -4.00252,2.07222 0,1.7098 1.69991,4.1335 1.71642,6.01338 0.0151,1.74475 -2.86379,4.62228 -3.11734,6.86003 -0.1662,1.46876 2.11001,1.987167 3.88795,2.559917 1.06713,0.34336 1.8453,1.05023 2.1182,1.65054 0.36309,0.79822 0.0741,2.09481 -0.75415,3.10159 -0.66542,0.80885 -2.11103,1.3481 -2.18836,2.24234 -0.0485,0.55757 -0.59842,0.8745 -0.59414,1.34138 0.006,0.57947 -0.0498,1.73557 0.60983,2.39898 0.54473,0.54737 2.16365,0.69665 2.91932,1.15822 1.2605,0.77002 1.66764,1.80544 2.01611,2.55819 0.52178,1.12784 -0.60983,1.71614 -1.17888,2.60934 -0.56906,0.89318 -1.52124,0.56778 -1.78878,2.04645 -0.37991,2.10151 1.36153,2.61183 2.9623,3.10339 1.34464,0.41288 2.33836,2.10506 2.72161,2.57619 0.3767,0.4637 -0.0817,1.56969 -1.22369,2.53629 -0.71332,0.60343 -2.04151,0.81269 -2.91459,1.61768 -0.52355,0.48313 -0.61809,1.42393 -1.02637,2.134 -0.91493,1.59121 -1.99102,2.33086 -3.1341,2.44203 -0.8509,0.0829 -2.25466,-0.69342 -2.97516,-1.29724 -0.97399,-0.81699 0.30403,-1.88909 -0.54252,-2.82142 -1.21285,-1.33538 -4.32301,-0.95458 -5.56637,-2.46502 -2.07201,-2.51686 -1.86932,-6.95143 -1.83566,-8.85281 0.12787,-7.17975 -5.36684,-13.29197 -8.69512,-19.772617 -1.33714,-2.60371 -2.73951,-5.18514 -3.18642,-7.9533 -0.9622,-5.95624 -2.12747,-14.62486 0.60561,-21.513797 1.28382,-3.23678 3.50835,-7.07386 2.85654,-10.66742 -0.28575,-1.57501 -0.38779,-2.8645 -0.84548,-4.05732 -0.58796,-1.53369 -1.53806,-2.91 -1.82558,-4.53473 -0.70153,-3.96027 -0.32338,-7.38267 1.22684,-10.09859 1.32321,-2.3182 3.36365,-4.78387 8.99632,-5.18232 z"
     style="fill:none;stroke:#000000;stroke-width:0.05069278;stroke-linecap:butt;stroke-linejoin:miter;stroke-miterlimit:4;stroke-dasharray:none"
     id="path866"
     inkscape:connector-curvature="0" />
  <path
     d="m 293.57515,80.889553 c -0.34663,0 -0.83508,-0.18598 -1.41989,-0.10588 -1.10401,0.15105 -1.56421,-0.81873 -1.97747,-1.03259 -0.77527,-0.40054 -2.56827,-0.71497 -3.43669,-1.09363 -1.84209,-0.80356 -3.41526,0.0692 -5.00343,-0.09 -2.09205,-0.20963 -3.16385,-2.44948 -3.41488,-3.65605 -0.97122,-4.662487 0.4258,-7.388997 6.93287,-8.027747 1.02454,-0.10022 2.91642,-1.29267 4.74812,-2.80026 1.02775,-0.84554 1.80018,-2.02599 2.96722,-2.59769 3.08223,-1.50935 7.01638,-0.32467 6.84375,4.54394 -0.0435,1.23091 -1.31426,3.39418 -1.95705,5.69227 -0.53678,1.919407 -0.31764,4.961047 -0.86086,6.612257 -0.69831,2.12234 -2.55295,2.95978 -3.42169,2.55536 z"
     style="fill:none;stroke:#000000;stroke-width:0.05069278;stroke-linecap:butt;stroke-linejoin:miter;stroke-miterlimit:4;stroke-dasharray:none"
     id="path868"
     inkscape:connector-curvature="0" />
  <path
     d="m 343.77009,18.220036 0.45208,0.0206 v 34.50265 h 3.12157 v -34.36103 l 1.74497,0.0792 c 2.27539,0.10324 6.07844,-0.51204 9.26411,0.12952 7.10443,1.43101 11.86149,7.0873 13.0035,17.06832 l 1.87115,16.35198 0.3849,10.66322 c 0.25537,7.06999 2.10352,22.885877 -1.4134,32.032667 -1.80699,4.69883 -5.25345,7.883417 -12.46956,6.094587 -2.36709,-0.58689 -5.98429,-5.733937 -10.97593,-6.670137 -5.42954,-1.01812 -10.36175,1.20969 -13.70359,0.35957 -3.72572,-0.94821 -4.84227,-6.07201 -0.47666,-10.95861 2.38254,-2.66717 1.59214,-6.19796 0.83798,-7.79338 -0.79928,-1.69185 -2.82219,-3.797237 -5.61363,-3.659917 -2.55113,0.12564 -5.94276,0.846957 -8.39254,-0.93626 -2.66287,-1.93881 -3.06346,-5.10979 -2.61881,-8.63935 l 0.0872,-0.69183 12.69122,-0.13547 -0.0277,-3.12115 -12.2699,0.13079 0.24025,-1.90707 c 0.18618,-1.47798 -0.0466,-5.04338 2.08348,-7.20267 1.77895,-1.80301 6.51647,-3.31087 8.84556,-4.84249 2.99375,-1.96917 3.48075,-3.86951 4.13747,-5.31358 0.22852,-0.50326 0.81472,-2.91742 0.16443,-5.92731 -0.59735,-2.76461 -2.32443,-6.46089 -1.76407,-9.63489 0.35061,-1.98679 1.84316,-3.67258 3.26198,-4.68613 1.58893,-1.13493 3.98753,-2.21269 7.53382,-0.95175 z"
     style="fill:none;stroke:#000000;stroke-width:0.05069278;stroke-linecap:butt;stroke-linejoin:miter;stroke-miterlimit:4;stroke-dasharray:none"
     id="path870"
     inkscape:connector-curvature="0" />
  <path
     d="m 213.04937,51.343516 c 0.17332,1.53866 3.12264,3.59214 4.37961,6.71179 1.25728,3.11997 0.48989,6.69344 -1.08359,9.70229 -1.10546,2.11457 -6.78647,4.845277 -11.66668,8.134997 -3.88795,2.62101 -8.29983,3.91404 -11.95893,4.83158 -2.83834,0.71144 -3.38697,3.96339 -1.18431,5.67073 3.46972,2.68945 16.98965,-2.15304 20.47292,-3.59109 11.36908,-4.6936 24.94731,-14.408897 22.76148,-28.513217 -0.5071,-3.26537 -2.02619,-5.483 -2.0376,-7.61912 -0.0221,-4.05056 4.39139,-7.08446 9.11839,-12.42591 4.5153,-5.10225 1.73502,-15.38821 -5.89907,-15.38821 -9.0221,0 -12.73528,8.04751 -19.77914,9.91685 -1.40918,0.37403 -2.934,-0.87872 -6.02481,-1.6244 -3.50369,-0.84486 -8.67615,-1.18436 -11.67242,-0.4274 -4.22854,1.06789 -8.34773,2.02779 -11.44931,4.33753 -7.34657,5.47027 -11.38553,14.58213 -14.92294,22.33534 -2.07163,4.54006 -2.25534,5.4731 -2.25534,9.57664 0,4.78744 5.30607,2.64955 6.24678,1.53614 1.18708,-1.40559 1.52552,-3.66238 2.641,-5.50591 3.39087,-5.6037 7.40493,-12.0314 13.32367,-15.8452 2.30729,-1.48674 4.85665,-1.11091 7.97752,-1.04602 5.52906,0.11502 7.30397,2.91948 8.85589,4.65476 l 1.39752,1.56256 0.034,0.0429 7.95798,-7.58773 2.31995,2.43294 -8.15657,7.77712 z"
     style="fill:none;stroke:#000000;stroke-width:0.05069278;stroke-linecap:butt;stroke-linejoin:miter;stroke-miterlimit:4;stroke-dasharray:none"
     id="path872"
     inkscape:connector-curvature="0" />
  <path
     d="m 127.68964,24.411486 c -3.60888,0.0462 -4.42669,5.1926 -5.29058,6.45669 -5.20926,7.62254 -24.334123,26.17545 -34.319355,25.00509 -3.97372,-0.46614 -4.64242,-5.88396 -5.56853,-11.55038 -0.81737,-4.99972 -1.96305,-10.14424 -3.94421,-12.9669 -4.61155,-6.57152 -11.92949,-2.49397 -12.89232,-3.86239 -0.17702,-0.2513 -0.48032,-2.48208 0.87646,-3.6061 1.41266,-1.17091 4.39495,-1.41572 5.93225,-2.69291 0.92171,-0.7661 0.80666,-2.52331 0.97135,-3.34124 0.36214,-1.8025 -3.16472,-4.02947 -6.90953,-3.64368 -2.65449,0.27348 -5.78713,3.32083 -7.54748,2.11777 -7.44879,-5.09059 7.95841,-9.6962397 12.2085,-8.6398697 11.29343,2.8064397 14.82773,15.8312197 18.12751,25.1929297 1.30757,3.70874 2.17755,7.17995 4.75316,8.66572 4.299492,2.48061 18.752725,-18.05786 22.854735,-21.44851 1.78865,-1.4786 11.57051,-18.7637797 14.98596,-18.5437297 1.57865,0.10179 2.78684,-0.71859997 4.56906,-0.1956 1.93084,0.56642 3.52411,2.03743 5.29555,3.19634 2.32481,1.52081 4.94639,3.13977 6.0799,5.20358 1.45714,2.6538897 0.83054,5.8981997 -2.0722,9.0483697 -2.01579,2.18807 -3.15213,6.48599 -6.69294,8.65175 -4.11931,2.51919 -2.98713,-2.92971 -7.26445,-2.99036 l -0.49462,-0.007 4.05062,-6.43228 -2.64176,-1.66368 z"
     style="fill:none;stroke:#000000;stroke-width:0.05069278;stroke-linecap:butt;stroke-linejoin:miter;stroke-miterlimit:4;stroke-dasharray:none"
     id="path874"
     inkscape:connector-curvature="0" />
  <path
     d="m 318.02123,168.36203 0.17325,-0.86035 21.6368,1.49874 0.4176,-3.10025 -21.43278,-1.48452 0.10141,-0.5037 c 0.22462,-1.11539 -0.67046,-2.6592 -1.49004,-3.67396 -3.30661,-4.09375 -12.09078,-2.2949 -17.50608,-3.04539 -1.49709,-0.20761 -28.79379,-0.71517 -30.545,-2.11243 -1.67035,-1.33293 -3.19738,-3.0003 -3.13499,-4.86457 0.0982,-2.92886 1.0759,-5.2709 4.45675,-5.88699 l 24.84401,-4.5268 c 5.99538,-1.09267 14.1638,-1.37334 18.49047,-4.30145 1.36638,-0.92496 1.55092,-3.50965 1.2864,-5.37413 l -0.14956,-1.05518 21.79348,-3.43441 -0.28588,-3.11519 -21.94594,3.4585 -0.11905,-0.83949 c -0.1776,-1.2529 -1.54903,-4.78699 0.99334,-7.92328 5.64508,-6.9634 25.91449,-5.18472 33.31274,-7.85119 5.34484,-1.92626 15.09487,-0.16469 16.77612,9.73117 0.87845,5.17115 -1.08459,7.66755 -3.23753,10.7222 -1.19716,1.69921 -2.02001,3.65048 -2.70743,6.31951 -0.66025,2.5622 -0.81472,4.6685 -0.64997,5.78707 l 0.0912,0.61931 -28.44318,1.9946 0.21838,3.11393 28.68098,-2.01102 0.2446,1.6607 c 0.17912,1.21627 -0.17193,6.83695 1.90373,9.04597 0.76494,0.814 0.95193,2.12179 1.64697,2.94125 0.89754,1.05833 2.16006,1.58392 2.86241,2.66727 1.46413,2.25803 1.72304,5.1842 1.66298,7.37893 -0.072,2.63416 -0.7367,4.98757 -2.22416,6.67128 -2.31547,2.62162 -5.0234,4.1148 -6.57401,4.23051 -5.23504,0.38968 -22.044,-0.33386 -26.81096,-0.53049 -9.88226,-0.40817 -13.76151,-0.18497 -14.33705,-11.34615 z"
     style="fill:none;stroke:#000000;stroke-width:0.05069278;stroke-linecap:butt;stroke-linejoin:miter;stroke-miterlimit:4;stroke-dasharray:none"
     id="path876"
     inkscape:connector-curvature="0" />
  <path
     d="m 121.61541,70.257526 c -2.87841,-0.65798 -5.49622,-2.27215 -7.04972,-2.4695 -6.60761,-0.83993 -7.74606,-3.58913 -19.980765,10.811167 -10.61784,12.4971 -9.17527,11.73328 -13.61909,26.886507 -0.32563,1.11043 -1.5088,12.96722 -2.17604,13.17455 -5.00938,1.56063 -8.34254,-6.74388 -6.88011,-15.05428 1.97132,-11.199297 5.27356,-20.551087 5.75064,-21.738007 4.21518,-10.480487 21.620692,-28.085587 36.029635,-30.216647 4.8763,-0.72156 5.58483,0.47476 7.31335,0.19914 4.32144,-0.68856 9.48772,-7.14561 14.05628,-12.70045 4.29024,-5.21615 14.3835,-4.69738 15.70917,2.71143 1.56668,8.75588 -7.28405,14.69212 -7.92836,21.85198 -0.12857,1.43166 3.45781,4.55642 4.91955,7.70631 1.43571,3.093557 3.11274,6.324987 2.93759,9.467307 -0.25273,4.52391 -2.32291,12.07165 -3.39301,15.88652 -1.52603,5.441097 -6.22467,12.715617 -11.26767,18.201627 -0.87939,0.95658 -10.4261,11.57905 -19.89788,17.51141 -4.27626,2.67844 -8.22675,3.00157 -11.22676,3.11507 -3.2358,0.12256 -5.341353,-0.26017 -5.014643,-4.43967 0.149333,-1.91515 2.489013,-2.38007 4.404313,-3.47903 3.07844,-1.7662 6.50801,-3.07201 8.77193,-4.7508 6.4167,-4.75897 9.80398,-9.59749 12.89322,-13.3927 2.67245,-3.28315 7.47646,-13.368537 9.18104,-20.177217 0.69541,-2.77729 0.92004,-7.35044 -0.92918,-9.53426 -7.12233,-8.411087 -6.27174,-7.634517 -7.56369,-8.198987 l -0.76904,-0.33605 -0.44974,-0.0916 5.88206,-8.68228 -2.78312,-1.8858 -6.62097,9.77292 z"
     style="fill:none;stroke:#000000;stroke-width:0.05069278;stroke-linecap:butt;stroke-linejoin:miter;stroke-miterlimit:4;stroke-dasharray:none"
     id="path878"
     inkscape:connector-curvature="0" />
  <path
     d="m 103.00887,152.13906 c 2.03315,-0.73892 13.91641,6.57774 23.56957,-1.69222 2.7138,-2.32487 9.66274,-11.83865 13.34498,-22.77764 3.07411,-9.13146 3.26955,-19.17058 4.34948,-24.32765 0.48189,-2.30181 1.58092,-3.419187 1.67817,-3.421457 6.39256,-0.13381 8.7589,21.398277 1.87285,40.865067 -5.87942,16.62129 -22.85986,28.46499 -34.42613,30.74458 -3.74653,0.73829 -6.39661,-0.8845 -8.16859,-0.13817 -1.95365,0.82276 -3.87906,2.41733 -6.015633,4.59343 -1.71183,1.74351 -3.719212,3.71562 -5.221202,6.46542 -5.07692,9.29607 -16.36967,8.7721 -17.47414,-0.74112 -0.98705,-8.49935 5.70196,-13.31991 6.1891,-20.42378 0.0985,-1.43367 -1.27501,-3.30806 -3.14078,-5.77545 -11.38713,-15.05817 1.56327,-48.59416 12.27795,-55.5084 5.299562,-3.420117 9.085175,-7.297907 12.959185,-9.365787 8.60498,-4.59286 14.19878,-5.65451 16.82831,-5.55133 2.56291,0.10074 3.52417,2.16505 1.54392,4.33785 -1.69972,1.86565 -5.3737,3.51278 -9.15442,5.96881 -4.58765,2.98007 -9.43666,7.049527 -13.70686,11.558397 -9.992645,10.55167 -11.887055,25.45611 -11.138745,27.31798 1.02369,2.54727 1.03101,5.45615 2.42755,8.20666 4.644672,9.14765 5.512792,5.30503 7.378792,7.11622 l 0.3858,0.37451 -4.241562,9.93037 3.091492,1.32045 4.115583,-9.63541 z"
     style="fill:none;stroke:#000000;stroke-width:0.05069278;stroke-linecap:butt;stroke-linejoin:miter;stroke-miterlimit:4;stroke-dasharray:none"
     id="path880"
     inkscape:connector-curvature="0" />
  <path
     d="m 167.42299,185.15475 0.79954,0.0227 -0.30341,-11.74568 3.1205,-0.0806 0.30775,11.91495 0.96264,0.0273 c 0.25336,0.007 0.51933,-0.004 0.77382,-0.0395 3.02281,-0.41983 10.38482,-0.98166 12.01698,-0.7785 l 0.79109,0.0985 0.1609,-11.2449 3.12125,0.0447 -0.16582,11.58817 1.19269,0.14847 c 4.12246,0.5132 7.13273,-0.1021 9.57576,0.0456 0.56326,0.034 1.65882,-0.11392 2.10882,-0.0812 l 0.9646,0.0701 0.17786,-12.43025 3.12131,0.0447 -0.1805,12.61226 1.74314,0.12672 c 5.39179,0.3919 19.01962,-0.70359 24.68626,-0.5738 0.58582,0.0135 1.0904,0.1274 1.47573,0.06 0.53256,-0.0935 1.85281,-0.13727 1.84569,-0.64578 -0.10311,-7.09434 3.39988,-23.77028 1.86756,-25.75036 -1.97319,-2.55043 -5.70093,-2.66464 -7.36157,-2.67112 l -1.37634,-0.006 -1.51538,14.81322 -3.10537,-0.31755 1.48405,-14.50801 -0.95243,-0.004 c -1.73634,-0.007 -3.46814,-0.55692 -4.04255,-2.02674 -1.32605,-3.39308 -4.63498,-6.68848 -8.53119,-6.32957 -2.21016,0.20325 -2.37781,2.42934 -3.91763,2.31291 l -0.98559,-0.0747 -3.07688,-0.23324 -0.27164,-0.0206 c -1.96203,-0.1488 -1.92705,-3.55546 -3.15421,-5.37114 -0.36277,-0.5367 -0.32912,-1.72176 -0.73985,-2.08102 -4.65685,-4.07531 -9.03747,-7.26974 -14.70096,-6.29435 -2.21558,0.38152 -4.62956,0.96872 -7.33144,3.04235 -3.27592,2.51381 -2.44487,15.13679 -7.19626,12.72811 l -0.89798,-0.45523 -2.47115,-1.25272 -0.82664,-0.41904 c -5.04193,-2.55587 -9.99141,-0.93015 -10.64429,1.19633 -0.74577,2.42867 -3.71948,4.30414 -6.0591,4.62439 l -1.68119,0.23011 1.23183,14.96778 -3.11117,0.25597 -1.21796,-14.79985 -0.64645,0.0885 c -1.5315,0.20962 -4.61147,0.63765 -6.72199,3.00671 -0.55046,0.61779 -1.19747,1.20478 -1.34256,2.26172 -0.62848,4.581 0.69151,11.78754 1.50441,15.69553 0.9121,4.38337 -0.3162,6.98352 1.34539,8.23034 1.29239,0.97009 4.33455,1.1222 11.49375,0.66063 l 10.58378,-0.68284 z"
     style="fill:none;stroke:#000000;stroke-width:0.05069278;stroke-linecap:butt;stroke-linejoin:miter;stroke-miterlimit:4;stroke-dasharray:none"
     id="path882"
     inkscape:connector-curvature="0" />
  <path
     d="m 213.27361,132.82693 c 4.35024,8.57441 15.55376,-4.50174 18.21568,-8.71982 0.97279,-1.54152 0.96945,-4.74928 0.38571,-7.61097 -0.35023,-1.71685 -2.39287,-3.8074 -1.53592,-5.79954 1.68523,-3.91826 5.30854,-8.78438 5.1402,-10.868217 -0.1991,-2.45973 2.10711,-6.52125 3.18496,-10.56373 0.35918,-1.34702 0.39215,-2.69507 0.30517,-3.98069 -0.10638,-1.56653 0.77704,-4.19665 -0.36598,-5.80271 -1.39235,-1.95612 -4.32346,-2.05774 -5.68064,0.0744 -1.21537,1.91023 -1.61753,5.20807 -2.75778,8.05067 -2.02758,5.05355 -4.40179,10.34208 -5.6154,11.53807 -0.97475,0.960597 -1.35618,2.448757 -2.23991,3.664507 -1.47296,2.02636 -3.42283,3.90696 -5.08335,5.79813 -2.65751,3.02614 -5.91048,5.20741 -8.81083,7.12189 -3.07864,2.03231 -7.30712,2.69724 -11.10444,2.73427 -7.71564,0.0752 -9.78419,-2.89805 -10.57269,-4.5362 l -0.0677,-0.14063 -0.0271,-0.0224 -7.72119,7.50987 -2.34384,-2.41005 7.46254,-7.25835 -1.03286,-0.86904 c -1.58564,-1.33416 -4.88065,-5.9474 -5.3909,-8.46889 -1.03317,-5.105697 0.87844,-12.849077 5.63765,-18.340857 4.65931,-5.37682 9.96501,-10.18999 16.30412,-13.109887 3.39661,-1.56473 6.06559,-3.23185 9.34516,-4.80789 1.71781,-0.82578 4.61015,-0.63592 5.69633,-2.52675 7.21617,-12.56357 -20.40157,-0.45421 -25.09738,0.95175 -2.506,0.74992 -4.915,3.88616 -8.91646,4.53828 -3.12087,0.50857 -5.8346,-1.29938 -8.91716,-1.10387 -3.0833,0.1955 -6.53682,2.3962 -7.67064,4.09011 -0.99088,1.480787 -2.61415,2.654847 -3.88644,4.155397 -0.98911,1.16703 -2.07636,2.32984 -2.1748,3.96802 -0.14862,2.46394 1.92213,3.83162 3.92154,5.89479 l 0.38496,0.39721 5.38271,-6.2018 2.35688,2.04622 -5.55931,6.40542 0.43771,0.45165 c 1.39802,1.44274 -1.73545,3.60407 -2.10119,5.11609 -0.78025,3.2251 -1.28741,6.578777 -1.60216,9.388887 -0.59445,5.31048 2.99413,9.53393 2.59808,14.18623 -0.44376,5.20773 -7.54031,8.597 -8.28835,13.66075 -0.56477,3.82438 2.26215,10.58981 7.61865,10.90703 11.43324,0.6776 14.82764,-9.07125 20.6877,-9.33629 3.31392,-0.14964 5.86183,1.61876 8.55369,1.57359 5.77864,-0.0973 10.42906,-7.6914 16.36684,-4.33361 l 1.45815,0.82461 7.69875,-7.49597 2.17764,2.23656 -7.04569,6.86011 z"
     style="fill:none;stroke:#000000;stroke-width:0.05069278;stroke-linecap:butt;stroke-linejoin:miter;stroke-miterlimit:4;stroke-dasharray:none"
     id="path884"
     inkscape:connector-curvature="0" />
  <path
     d="m 39.689495,147.68514 c 1.44476,-0.61096 4.76856,0.642 8.13718,1.123 3.44949,0.49293 9.01034,-1.98727 10.8616,-5.25448 1.17749,-2.0779 2.46385,-6.61374 2.97207,-12.41987 0.40448,-4.62562 1.98552,-11.31071 0.99733,-14.89935 -0.76637,-2.78328 -2.92122,-11.09818 -0.42117,-12.35008 9.1593,-4.585177 10.0736,18.77584 10.61751,22.45709 1.8298,12.38833 -5.74071,33.92942 -19.88457,38.50674 -3.18644,1.03144 -5.84102,0.96991 -7.73382,2.0142 -3.58975,1.981 -5.67961,5.51203 -7.66997,12.3269 -2.19869,7.52859 -14.09533,11.19996 -17.10796,3.61625 -3.16228,-7.96087 2.15004,-14.30641 0.82432,-21.30328 -0.26769,-1.41239 -2.52777,-2.45306 -5.08833,-4.30783 -2.89272,-2.09514 -5.0101,-6.30174 -6.08758,-9.45304 -1.5058593,-4.40384 -1.6333893,-8.46962 -1.1302693,-12.35033 1.2124793,-9.34608 5.5289593,-19.18158 10.0837093,-26.72051 4.02385,-6.66041 13.18475,-15.689967 16.63656,-12.537287 3.55857,3.24988 1.40911,2.49112 0.88765,3.84626 -0.65807,1.710657 -7.16477,10.002027 -8.24532,11.867667 -3.28472,5.67198 -5.73873,14.93149 -6.19965,21.88695 -0.17938,2.71138 1.40613,4.71171 2.99675,7.35422 4.92705,8.18519 6.52027,4.14688 9.07261,5.0735 l 0.89664,0.32554 -2.24274,10.81243 3.29166,0.683 2.22765,-10.73976 z"
     style="fill:none;stroke:#000000;stroke-width:0.05069278;stroke-linecap:butt;stroke-linejoin:miter;stroke-miterlimit:4;stroke-dasharray:none"
     id="path886"
     inkscape:connector-curvature="0" />
  <path
     d="m 37.386275,48.141266 c -1.38547,0.73256 -2.37796,-1.02726 -5.69875,-0.27663 -3.32129,0.75044 -9.3908,2.99254 -11.01857,5.97652 -1.14414,2.09671 -2.87764,8.10017 -4.41462,13.72983 -2.26462,8.294667 -4.34034,13.824537 -2.41129,17.996627 0.69347,1.49994 0.80953,7.05662 1.15873,11.72794 0.39725,5.317507 5.356,8.182827 1.19575,13.558897 -2.55656,3.30366 -7.7881293,-4.1059 -10.4872398,-12.942927 -3.08155,-10.08961 -2.88767,-22.71657 -2.57106,-24.22544 1.09516,-5.214067 1.22576,-13.632337 4.0583505,-21.133187 3.4402193,-9.10948 10.2895693,-17.03183 18.2063693,-20.58327 3.05167,-1.36877 4.05848,-0.64919 5.85189,-1.85228 3.40132,-2.28123 4.7477,-8.71669 6.54395,-15.58355 0.75038,-2.86955 2.81405,-5.5106397 5.53953,-6.6436797 3.66035,-1.52135 8.68061,-1.04638 10.67311,2.6975397 3.94504,7.41297 -1.15674,16.40277 1.95743,23.12401 0.60569,1.30659 3.27558,4.21405 5.64664,6.29917 2.68771,2.36335 4.72502,4.74631 5.78648,7.60669 1.49774,4.03665 3.74595,10.25353 3.72552,14.08438 -0.0499,9.37908 -3.55757,28.527547 -7.26075,36.213107 -2.54597,5.283937 -15.61579,16.546577 -19.18474,17.164977 -2.35616,0.40878 -2.9179,-0.61822 -1.99701,-3.73351 1.30323,-4.40937 7.45365,-8.6377 9.09803,-13.325117 2.58706,-7.37458 4.90746,-12.04545 5.62542,-16.86968 0.59898,-4.02462 2.44031,-14.144147 1.09228,-21.154747 -0.51281,-2.66715 -2.68975,-5.35693 -5.36585,-6.93079 -8.62435,-5.07217 -8.52594,-4.72149 -9.97793,-4.79263 l -0.93141,-0.0456 -0.036,-3.4e-4 2.59393,-10.56662 -3.26477,-0.80143 -2.78229,11.33392 z"
     style="fill:none;stroke:#000000;stroke-width:0.05069278;stroke-linecap:butt;stroke-linejoin:miter;stroke-miterlimit:4;stroke-dasharray:none"
     id="path888"
     inkscape:connector-curvature="0" />
</svg>
